<?xml version="1.0" encoding="UTF-8" standalone="no"?>
<svg
   width="66.671"
   height="66.671"
   viewBox="0 0 66.671 66.671"
   version="1.1"
   id="svg12"
   sodipodi:docname="LandingRecentPast-NB.svg"
   inkscape:version="1.3 (0e150ed6c4, 2023-07-21)"
   xmlns:inkscape="http://www.inkscape.org/namespaces/inkscape"
   xmlns:sodipodi="http://sodipodi.sourceforge.net/DTD/sodipodi-0.dtd"
   xmlns:xlink="http://www.w3.org/1999/xlink"
   xmlns="http://www.w3.org/2000/svg"
   xmlns:svg="http://www.w3.org/2000/svg">
  <sodipodi:namedview
     id="namedview12"
     pagecolor="#ffffff"
     bordercolor="#666666"
     borderopacity="1.0"
     inkscape:showpageshadow="2"
     inkscape:pageopacity="0.0"
     inkscape:pagecheckerboard="0"
     inkscape:deskcolor="#d1d1d1"
     showgrid="false"
     inkscape:zoom="19.790633"
     inkscape:cx="34.435483"
     inkscape:cy="37.164046"
     inkscape:window-width="1920"
     inkscape:window-height="1009"
     inkscape:window-x="1912"
     inkscape:window-y="-8"
     inkscape:window-maximized="1"
     inkscape:current-layer="svg12" />
  <defs
     id="defs3">
    <linearGradient
       id="linearGradient9"
       x1="111.752"
       y1="-376.521"
       x2="111.739"
       y2="-376.50201"
       gradientUnits="objectBoundingBox"
       spreadMethod="pad">
      <stop
         offset="0"
         stop-opacity="0.251"
         id="stop7"
         style="stop-color:#ff5b8a;stop-opacity:0.25098041;" />
      <stop
         offset="0.91"
         stop-opacity="0.933"
         id="stop8" />
      <stop
         offset="1"
         id="stop9" />
    </linearGradient>
    <linearGradient
       id="linearGradient6"
       x1="111.752"
       y1="-376.521"
       x2="111.739"
       y2="-376.502"
       gradientUnits="objectBoundingBox">
      <stop
         offset="0"
         stop-opacity="0.251"
         id="stop4"
         style="stop-color:#ff5b8a;stop-opacity:0.25098041;" />
      <stop
         offset="0.91"
         stop-opacity="0.933"
         id="stop5" />
      <stop
         offset="1"
         id="stop6" />
    </linearGradient>
    <style
       id="style1">.a{fill:#e22483;}.b{fill:#af1b69;}.c{fill:#fff;}.d,.e{opacity:0.15;isolation:isolate;}.d{fill:url(#a);}.e{fill:url(#b);}</style>
    <linearGradient
       id="a"
       x1="111.752"
       y1="-376.521"
       x2="111.739"
       y2="-376.502"
       gradientUnits="objectBoundingBox"
       xlink:href="#linearGradient9">
      <stop
         offset="0"
         stop-opacity="0.251"
         id="stop1" />
      <stop
         offset="0.91"
         stop-opacity="0.933"
         id="stop2" />
      <stop
         offset="1"
         id="stop3" />
    </linearGradient>
    <linearGradient
       id="b"
       x1="148.443"
       y1="-422.66"
       x2="148.428"
       y2="-422.635"
       xlink:href="#a" />
  </defs>
  <circle
     class="a"
     cx="33.335"
     cy="33.335"
     r="33.335"
     id="circle3"
     style="fill:#f3b1c4;fill-opacity:1" />
  <path
     class="b"
     d="m -6914.2293,125.11877 2.5405,41.10278 -18.6402,-8.83955 -2.0884,3.18404 17.9102,16.98629 2.2574,2.15359 c 11.1496,-0.61769 20.1257,-7.38259 25.0819,-16.17805 2.897,-5.14103 4.2875,-10.47683 4.2879,-17.00389 0,-0.347 -0.1529,1.34022 -0.1529,1.34022 l -22.7873,-20.7444 -10.4226,28.56481 4.6002,7.10804 z"
     transform="translate(6949.26,-113.234)"
     id="path3"
     style="display:inline;fill:#ff5b8a;fill-opacity:1"
     sodipodi:nodetypes="ccccccscccccc" />
  <path
     class="b"
     d="m -6892.919,148.275 v -4.009 c 0,-0.4047 -0.2673,-0.76051 -0.658,-0.866 l -2.511,-0.684 c -1.6325,-0.47661 -2.9527,-1.68164 -3.576,-3.264 -0.01,-0.0161 -0.015,-0.0337 -0.017,-0.052 -0.6888,-1.56068 -0.6119,-3.35303 0.208,-4.849 l 0.2181,-1.4025 c 0.1993,-0.34975 -0.2183,-0.43244 -0.5043,-0.7157 l -2.2603,-1.68866 c -1.4984,1.35818 -1.5092,-1.7033 -1.8591,-1.50472 l -0.6164,0.28958 c -1.4961,0.81958 -3.2883,0.89646 -4.849,0.208 -0.016,-0.01 -0.033,-0.0159 -0.052,-0.017 -1.5856,-0.6186 -2.7923,-1.94071 -3.264,-3.576 l -0.684,-0.65307 c -0.1058,-0.39052 -0.6758,-0.23197 -1.0804,-0.22925 l -3.5088,0.35729 c -0.4047,-0.003 -1.3321,0.33874 -1.4376,0.72946 l -0.3982,-0.20443 c -0.4766,1.63253 -1.6816,2.95275 -3.264,3.576 -0.016,0.009 -0.034,0.0149 -0.052,0.017 -1.5607,0.68846 -3.3529,0.61158 -4.849,-0.208 l -2.3315,2.56877 c -0.3501,-0.1991 -3.7914,7.14993 -3.7894,0.5043 l -0.044,-1.38407 c -0.285,0.28375 -0.3452,0.72304 -0.147,1.073 l 1.29,2.26 c 0.819,1.49622 0.8958,3.28814 0.208,4.849 -0.01,0.0156 -0.016,0.0335 -0.017,0.052 -0.6183,1.58574 -2.7981,2.00654 -4.7193,2.0492 l 34.4264,29.06291 c 8.8275,7.03722 -7.0858,-7.409 -7.0835,-7.00425 l -3.8589,-5.28064 c 6.8601,2.04818 1.5548,8.26315 1.9453,8.36918 l -20.7131,-17.60945 c 1.6325,0.47661 -2.5496,-0.0334 -1.9263,1.54899 -1.6335,-0.98442 -0.771,-0.25213 -0.769,-0.23383 0.6878,1.56086 3.3264,6.13967 2.5074,7.63589 l 1.7827,1.4025 c -0.1989,0.34982 -0.7818,0.50373 -0.4961,0.78716 l 1.8306,2.33179 c 0.2841,0.28521 0.9381,0.91706 1.2884,0.71867 l 0.6164,-0.21812 c 1.4961,-0.81958 3.2883,-0.89646 4.849,-0.208 0.016,0.01 0.3198,1.30216 0.3378,1.30326 1.5855,0.61873 2.5064,0.65453 2.9782,2.28974 l 0.684,2.511 c 0.1055,0.39072 0.4613,0.66108 0.866,0.658 h 4.009 c 0.4046,0.003 0.7602,-0.26749 0.866,-0.658 0.228,-0.837 3.9987,-9.54034 9.1876,-11.08605 0.4766,-1.63253 -6.822,5.6223 -5.2396,4.99905 0.016,-0.009 0.034,-0.0148 0.052,-0.017 1.5607,-0.68846 3.3529,-0.61158 4.849,0.208 l 2.26,1.29 c 0.3498,0.1993 0.7897,0.13902 1.073,-0.147 l 2.832,-2.832 c 0.285,-0.28375 0.3452,-0.72304 0.147,-1.073 l -1.29,-2.26 c -0.8199,-1.49597 -0.8968,-3.28832 -0.208,-4.849 0.01,-0.0159 0.015,-0.0336 0.017,-0.052 0.6185,-1.58565 1.9406,-2.79245 3.576,-3.264 l 2.511,-0.684 c 0.3877,-0.10998 0.6559,-0.46303 0.658,-0.866 z"
     transform="translate(6949.26,-113.234)"
     id="path4"
     style="display:inline;fill:#ff5b8a;fill-opacity:1"
     sodipodi:nodetypes="cccccccccccccccccccccccccccccccccccccccccccccccccccccccccccccccccc" />
  <path
     class="b"
     d="m -6932.8027,150.30117 -2.2532,-0.94188 c -0.6476,-0.46809 4.1314,-0.86473 1.0582,-1.33283 l 2.2797,-2.20146"
     transform="translate(6949.26,-113.234)"
     id="path5"
     style="display:none;fill:#ff5b8a;fill-opacity:1"
     sodipodi:nodetypes="cccc" />
  <path
     class="c"
     d="m -6892.919,148.275 v -4.009 a 0.89,0.89 0 0 0 -0.658,-0.866 l -2.511,-0.684 a 5.5,5.5 0 0 1 -3.576,-3.264 0.142,0.142 0 0 1 -0.017,-0.052 5.483,5.483 0 0 1 0.208,-4.849 l 1.29,-2.26 a 0.89,0.89 0 0 0 -0.147,-1.073 l -2.832,-2.832 a 0.892,0.892 0 0 0 -1.073,-0.147 l -2.26,1.29 a 5.485,5.485 0 0 1 -4.849,0.208 0.108,0.108 0 0 0 -0.052,-0.017 5.464,5.464 0 0 1 -3.264,-3.576 l -0.684,-2.511 a 0.891,0.891 0 0 0 -0.866,-0.658 h -4.009 a 0.89,0.89 0 0 0 -0.866,0.658 l -0.684,2.511 a 5.5,5.5 0 0 1 -3.264,3.576 0.135,0.135 0 0 1 -0.052,0.017 5.485,5.485 0 0 1 -4.849,-0.208 l -2.26,-1.29 a 0.892,0.892 0 0 0 -1.074,0.147 l -2.831,2.832 a 0.893,0.893 0 0 0 -0.147,1.073 l 1.29,2.26 a 5.489,5.489 0 0 1 0.208,4.849 0.109,0.109 0 0 0 -0.017,0.052 5.462,5.462 0 0 1 -3.576,3.264 l -2.511,0.684 a 0.892,0.892 0 0 0 -0.659,0.866 v 4.009 a 0.893,0.893 0 0 0 0.659,0.866 l 2.511,0.684 a 5.5,5.5 0 0 1 3.576,3.264 0.133,0.133 0 0 1 0.017,0.052 5.489,5.489 0 0 1 -0.208,4.849 l -1.29,2.26 a 0.891,0.891 0 0 0 0.147,1.073 l 2.831,2.832 a 0.894,0.894 0 0 0 1.074,0.147 l 2.26,-1.29 a 5.485,5.485 0 0 1 4.849,-0.208 0.108,0.108 0 0 0 0.052,0.017 5.465,5.465 0 0 1 3.264,3.576 l 0.684,2.511 a 0.89,0.89 0 0 0 0.866,0.658 h 4.009 a 0.891,0.891 0 0 0 0.866,-0.658 l 0.684,-2.511 a 5.5,5.5 0 0 1 3.264,-3.576 0.14,0.14 0 0 1 0.052,-0.017 5.485,5.485 0 0 1 4.849,0.208 l 2.26,1.29 a 0.89,0.89 0 0 0 1.073,-0.147 l 2.832,-2.832 a 0.893,0.893 0 0 0 0.147,-1.073 l -1.29,-2.26 a 5.483,5.483 0 0 1 -0.208,-4.849 0.128,0.128 0 0 0 0.017,-0.052 5.463,5.463 0 0 1 3.576,-3.264 l 2.511,-0.684 a 0.905,0.905 0 0 0 0.658,-0.866 z"
     transform="translate(6949.26,-113.234)"
     id="path6"
     style="display:none" />
  <path
     class="c"
     d="m -6898.183,160.25 -1.29,-2.26 a 5.3,5.3 0 0 1 -0.295,-4.65 l 0.182,-0.433 a 5.3,5.3 0 0 1 3.49,-3.074 l 2.511,-0.684 a 0.891,0.891 0 0 0 0.658,-0.865 v -4.009 a 0.892,0.892 0 0 0 -0.658,-0.866 l -2.511,-0.684 a 5.292,5.292 0 0 1 -3.49,-3.074 l -0.1,-0.251 a 5.708,5.708 0 0 1 0.312,-5.013 l 1.195,-2.087 a 0.892,0.892 0 0 0 -0.147,-1.074 l -1.42,-1.42 -32.946,32.946 1.42,1.42 a 0.89,0.89 0 0 0 1.073,0.147 l 2.079,-1.186 a 5.707,5.707 0 0 1 5.013,-0.32 l 0.052,0.017 a 5.713,5.713 0 0 1 3.333,3.784 l 0.632,2.3 a 0.893,0.893 0 0 0 0.866,0.658 h 4.009 a 0.891,0.891 0 0 0 0.866,-0.658 l 0.623,-2.3 a 5.747,5.747 0 0 1 3.334,-3.792 l 0.052,-0.017 a 5.706,5.706 0 0 1 5.013,0.311 l 2.087,1.2 a 0.892,0.892 0 0 0 1.074,-0.147 l 2.831,-2.831 a 0.9,0.9 0 0 0 0.152,-1.088 z"
     transform="translate(6949.26,-113.234)"
     id="path7"
     style="display:none" />
  <circle
     class="b"
     cx="13.975"
     cy="13.975"
     r="13.975"
     transform="translate(19.075,19.058)"
     id="circle7"
     style="display:none;fill:#ff5b8a;fill-opacity:1" />
  <path
     class="d"
     d="m -6909.1016,156.36685 c 9.0599,15.50666 15.3878,-4.74945 9.1205,-6.84127 l -13.597,-14.80609 -3.7492,2.16113 -0.3516,10.69952 4.2979,4.563 c 2.4146,1.85925 2.161,1.86657 4.2794,4.22371 z"
     transform="translate(6949.26,-113.234)"
     id="path8"
     style="display:inline;fill:#ff5b8a;fill-opacity:1"
     sodipodi:nodetypes="ccccccc" />
  <path
     class="e"
     d="m -6918.41,152.977 c 5.871,0 8.382,-2.33 9.958,-7.689 l -4.849,-7.6 -8.581,8.581 -2.589,0.312 c 0,0 3.092,6.396 6.061,6.396 z"
     transform="translate(6949.26,-113.234)"
     id="path9"
     style="display:none" />
  <path
     d="m -6907.638,143.366 -6.408,6.407 -4.719,-0.944 -0.943,-4.719 6.407,-6.407 a 8.943,8.943 0 0 0 -2.909,-0.485 9.048,9.048 0 0 0 -9.057,9.039 9.06,9.06 0 0 0 0.77,3.663 l -2.874,2.875 a 12.952,12.952 0 0 0 4.563,4.589 l 2.866,-2.866 a 9.044,9.044 0 0 0 11.976,-4.485 9.042,9.042 0 0 0 0.328,-6.668 z"
     transform="translate(6949.26,-113.234)"
     id="path10"
     style="display:none" />
  <path
     class="c"
     d="m -6928.774,154.189 a 12.948,12.948 0 0 0 4.563,4.589 l 5.8,-5.8 -4.571,-4.571 z"
     transform="translate(6949.26,-113.234)"
     id="path11"
     style="display:none" />
  <path
     class="c"
     d="m -6914.063,149.764 -4.719,-0.944 -0.944,-4.719 6.408,-6.407 a 8.978,8.978 0 0 0 -2.91,-0.485 9.075,9.075 0 0 0 -9.091,9.057 9.074,9.074 0 0 0 9.057,9.092 9.075,9.075 0 0 0 9.091,-9.057 9.077,9.077 0 0 0 -0.485,-2.944 z"
     transform="translate(6949.26,-113.234)"
     id="path12"
     style="display:none" />
  <path
     d="m 33.169549,54.971218 q -8.408046,0 -14.653152,-5.574899 -6.245106,-5.5749 -7.159024,-13.922017 h 4.996085 q 0.85299,6.336497 5.635828,10.479592 4.782837,4.143095 11.180263,4.143095 7.12856,0 12.094181,-4.965621 4.965621,-4.965621 4.965621,-12.094181 0,-7.12856 -4.965621,-12.094181 -4.965621,-4.965621 -12.094181,-4.965621 -4.204022,0 -7.859694,1.949692 -3.655672,1.949692 -6.153715,5.361652 h 6.702065 v 4.87423 H 11.235518 V 13.540272 h 4.874229 v 5.727218 q 3.107321,-3.899383 7.585519,-6.031858 4.478198,-2.132475 9.474283,-2.132475 4.56959,0 8.560364,1.736444 3.990776,1.736444 6.945777,4.691445 2.955001,2.955001 4.691445,6.945777 1.736444,3.990774 1.736444,8.560364 0,4.56959 -1.736444,8.560365 -1.736444,3.990775 -4.691445,6.945777 -2.955001,2.955001 -6.945777,4.691445 -3.990774,1.736444 -8.560364,1.736444 z m 6.82392,-11.69815 -9.261035,-9.261034 V 20.851615 h 4.87423 v 11.210727 l 7.798765,7.798766 z"
     id="path1"
     style="display:inline;fill:#ffffff;fill-opacity:1;stroke-width:0.0609278" />
</svg>
